<svg width="160" height="40" viewBox="0 0 160 40" fill="none" xmlns="http://www.w3.org/2000/svg">
  <rect width="160" height="40" rx="12" fill="#0F172A"/>
  <path d="M19 26C17.8954 26 17 25.1046 17 24V15H14V24C14 26.2091 15.7909 28 18 28C20.2091 28 22 26.2091 22 24H19C19 25.1046 18.1046 26 17 26" fill="#38BDF8"/>
  <path d="M30.5 14C26.3579 14 23 17.3579 23 21.5C23 25.6421 26.3579 29 30.5 29C32.3555 29 34.0601 28.3554 35.4045 27.2691L33.536 25.4005C32.6779 26.1029 31.6205 26.5 30.5 26.5C27.7386 26.5 25.5 24.2614 25.5 21.5C25.5 18.7386 27.7386 16.5 30.5 16.5C31.6205 16.5 32.6779 16.8971 33.536 17.5995L35.4045 15.7309C34.0601 14.6446 32.3555 14 30.5 14Z" fill="#38BDF8"/>
  <path d="M38.5 12H40.5V28H38.5V12Z" fill="#38BDF8"/>
  <text x="50" y="25" fill="#E2E8F0" font-family="'Segoe UI', sans-serif" font-size="18" font-weight="600">Job</text>
  <text x="86" y="25" fill="#38BDF8" font-family="'Segoe UI', sans-serif" font-size="18" font-weight="700">Connect</text>
</svg>
